<svg width="1200" height="196" viewBox="0 0 1200 196" fill="none" xmlns="http://www.w3.org/2000/svg">
<path d="M19.2002 61.4246H6.68093H-6.97656V195.854H1203.99V74.515L1124.89 34.7401L1079.37 41.2854L1049.77 34.7401L1017.34 41.2854L976.246 8.49594L922.872 41.2854L847.186 49.341L810.196 34.7401L757.274 45.8166H723.698L670.207 29.7053L638.871 25.935L620.699 11.0766L601.351 0L552.98 34.7401H530.218L511.439 42.2923H484.124L454.533 54.3759L409.008 49.341L370.312 57.3967L279.262 42.2923L224.751 10.7317L194.472 38.7679L131.874 54.3759H89.7635L36.8412 63.9419L19.2002 61.4246Z" fill="url(#paint0_linear_51_4374)"/>
<defs>
<linearGradient id="paint0_linear_51_4374" x1="598.505" y1="-877.7" x2="598.505" y2="168.742" gradientUnits="userSpaceOnUse">
<stop stop-color="#99E39E"/>
<stop offset="1" stop-color="#99E39E" stop-opacity="0"/>
</linearGradient>
</defs>
</svg>
