<svg width="33" height="29" viewBox="0 0 33 29" fill="none" xmlns="http://www.w3.org/2000/svg">
<path opacity="0.4" d="M28.2548 23.311C31.0272 20.8353 32.7273 17.4944 32.7273 13.8182C32.7273 6.18662 25.401 0 16.3636 0C7.32625 0 0 6.18662 0 13.8182C0 21.4497 7.32625 27.6364 16.3636 27.6364C18.9275 27.6364 21.3537 27.1385 23.5139 26.2508C26.0515 27.8172 29.1605 28.9431 32.5941 28.7056C30.7801 28.2445 29.2199 26.3767 28.2548 23.311Z" fill="#99E39E"/>
<path opacity="0.6" d="M28.3633 13.818C28.3633 19.4413 22.9907 23.9999 16.3633 23.9999C9.73586 23.9999 4.36328 19.4413 4.36328 13.818C4.36328 8.19478 9.73586 3.63623 16.3633 3.63623C22.9907 3.63623 28.3633 8.19478 28.3633 13.818Z" fill="#99E39E"/>
<path d="M23.9993 13.8182C23.9993 17.4331 20.5804 20.3636 16.3629 20.3636C12.1455 20.3636 8.72656 17.4331 8.72656 13.8182C8.72656 10.2032 12.1455 7.27271 16.3629 7.27271C20.5804 7.27271 23.9993 10.2032 23.9993 13.8182Z" fill="#99E39E"/>
</svg>
