<svg width="32" height="32" viewBox="0 0 32 32" fill="none" xmlns="http://www.w3.org/2000/svg">
<path d="M19.5844 0.822524L16.5147 0L13.9279 9.6543L11.5924 0.938333L8.52271 1.76086L11.046 11.1778L4.76104 4.89286L2.51386 7.14004L9.4077 14.0339L0.822523 11.7335L0 14.8032L9.38038 17.3167C9.27299 16.8534 9.21617 16.3708 9.21617 15.8749C9.21617 12.3645 12.0618 9.51888 15.5721 9.51888C19.0825 9.51888 21.9281 12.3645 21.9281 15.8749C21.9281 16.3676 21.872 16.8473 21.7659 17.3078L30.291 19.592L31.1135 16.5224L21.6958 13.9989L30.2815 11.6983L29.459 8.62866L20.0417 11.152L26.3266 4.86706L24.0795 2.61989L17.2813 9.41812L19.5844 0.822524Z" fill="#F97316"/>
<path d="M21.7579 17.3433C21.4948 18.4559 20.9391 19.4555 20.1768 20.2564L26.3528 26.4324L28.5999 24.1853L21.7579 17.3433Z" fill="#F97316"/>
<path d="M20.1136 20.3213C19.342 21.1093 18.3669 21.6974 17.2734 22.0005L19.5208 30.3876L22.5904 29.5651L20.1136 20.3213Z" fill="#F97316"/>
<path d="M17.1596 22.0311C16.6523 22.1615 16.1206 22.2308 15.5726 22.2308C14.9855 22.2308 14.417 22.1512 13.8773 22.0022L11.6279 30.397L14.6976 31.2194L17.1596 22.0311Z" fill="#F97316"/>
<path d="M13.7686 21.9711C12.6919 21.653 11.7341 21.0574 10.9783 20.2671L4.78711 26.4583L7.03428 28.7055L13.7686 21.9711Z" fill="#F97316"/>
<path d="M10.9264 20.2125C10.1836 19.4172 9.64246 18.4309 9.3849 17.3354L0.832031 19.6272L1.65455 22.6969L10.9264 20.2125Z" fill="#F97316"/>
</svg>
