<svg width="32" height="32" viewBox="0 0 32 32" fill="none" xmlns="http://www.w3.org/2000/svg">
<path fill-rule="evenodd" clip-rule="evenodd" d="M6.6753 2.80809C5.55869 3.58886 4.54897 4.51198 3.67244 5.55114C7.25434 5.2186 11.805 5.7616 17.0883 8.40326C22.7301 11.2241 27.2732 11.3195 30.4349 10.7096C30.148 9.841 29.7868 9.00619 29.359 8.21259C25.7397 8.59432 21.0997 8.08904 15.6921 5.38535C12.2583 3.66843 9.23142 2.96117 6.6753 2.80809ZM27.2448 5.20324C24.3865 2.00975 20.2329 0 15.6097 0C14.2521 0 12.9348 0.173352 11.679 0.499106C13.3798 0.963188 15.1866 1.64213 17.0883 2.59299C21.0474 4.57251 24.4655 5.20988 27.2448 5.20324ZM31.1109 13.7585C27.2912 14.5128 22.0166 14.3578 15.6921 11.1956C9.77948 8.23928 5.07351 8.27651 1.89963 8.98184C1.7358 9.01821 1.57584 9.05645 1.41973 9.09625C1.00419 9.99998 0.672495 10.9503 0.434499 11.9372C0.688691 11.8692 0.95136 11.8047 1.22237 11.7444C5.07283 10.8888 10.5132 10.926 17.0883 14.2135C23.001 17.1699 27.707 17.1326 30.8809 16.4273C30.9896 16.4032 31.0968 16.3782 31.2022 16.3524C31.2137 16.1064 31.2195 15.8587 31.2195 15.6097C31.2195 14.9834 31.1826 14.3656 31.1109 13.7585ZM30.6925 19.6467C26.9099 20.308 21.7888 20.0541 15.6921 17.0059C9.77948 14.0495 5.07351 14.0868 1.89963 14.7921C1.19512 14.9486 0.561357 15.1393 0.00228683 15.3405C0.000762537 15.4301 0 15.5198 0 15.6097C0 24.2308 6.98871 31.2195 15.6097 31.2195C22.8348 31.2195 28.9134 26.3109 30.6925 19.6467Z" fill="#7F57F1"/>
</svg>
