<svg width="28" height="28" viewBox="0 0 28 28" fill="none" xmlns="http://www.w3.org/2000/svg">
<path d="M26.0089 8.19118C25.5 7.02754 24.8265 5.94311 24.0089 4.97118C22.8004 3.49152 21.2922 2.28457 19.5836 1.42978C17.875 0.575001 16.0047 0.0917514 14.0959 0.0118414C12.1871 -0.0680686 10.283 0.257171 8.5089 0.966171C6.73487 1.67516 5.13107 2.75183 3.8031 4.12531C2.47512 5.49878 1.45307 7.13793 0.804224 8.93488C0.155374 10.7318 -0.105576 12.6458 0.0385635 14.5508C0.182714 16.4559 0.728663 18.3088 1.6405 19.9876C2.55234 21.6665 3.80939 23.1332 5.32891 24.2912C6.30391 25.0491 7.38126 25.6652 8.5289 26.1212C10.1379 26.7806 11.86 27.1202 13.5989 27.1212C17.1883 27.1133 20.6281 25.6825 23.1644 23.1425C25.7006 20.6025 27.1263 17.1606 27.1289 13.5712C27.1315 11.7197 26.7502 9.88778 26.0089 8.19118ZM13.5889 2.76117C15.1505 2.76101 16.6932 3.10231 18.1089 3.76117C17.7637 3.91034 17.4007 4.01453 17.0289 4.07118C15.8055 4.24827 14.6722 4.81625 13.7981 5.69035C12.924 6.56444 12.356 7.69778 12.1789 8.92118C12.1012 9.60728 11.7891 10.2456 11.2954 10.7284C10.8017 11.2112 10.1566 11.5088 9.4689 11.5712C8.2455 11.7483 7.11217 12.3163 6.23808 13.1904C5.36399 14.0645 4.796 15.1978 4.61891 16.4212C4.55895 17.0736 4.2806 17.6867 3.82891 18.1612C3.04956 16.5145 2.69946 14.6973 2.81118 12.8789C2.9229 11.0605 3.49281 9.29988 4.46788 7.76088C5.44294 6.22197 6.79148 4.95469 8.388 4.07702C9.9845 3.19935 11.7771 2.73982 13.5989 2.74117L13.5889 2.76117ZM5.31891 20.5712C5.43891 20.4612 5.55891 20.3612 5.67891 20.2412C6.56856 19.3787 7.13962 18.2401 7.29891 17.0112C7.36349 16.3204 7.6719 15.6752 8.1689 15.1912C8.6472 14.6934 9.2909 14.3875 9.9789 14.3312C11.2023 14.1541 12.3356 13.5861 13.2097 12.712C14.0838 11.8379 14.6518 10.7046 14.8289 9.48118C14.8722 8.75868 15.1822 8.07798 15.6989 7.57118C16.189 7.08303 16.8388 6.78828 17.5289 6.74117C18.6528 6.58654 19.701 6.08689 20.5289 5.31118C21.4716 6.09325 22.2702 7.03407 22.8889 8.09118C22.8509 8.14248 22.8073 8.18948 22.7589 8.23118C22.2816 8.73338 21.6387 9.04598 20.9489 9.11118C19.7242 9.28518 18.5892 9.85218 17.7145 10.7268C16.8399 11.6015 16.2729 12.7365 16.0989 13.9612C16.0284 14.6496 15.7221 15.2925 15.2319 15.7809C14.7416 16.2694 14.0976 16.5733 13.4089 16.6412C12.1819 16.8169 11.0444 17.3838 10.1652 18.2575C9.2861 19.1313 8.7122 20.2653 8.5289 21.4912C8.4751 21.9799 8.3072 22.4492 8.0389 22.8612C7.0129 22.252 6.094 21.4784 5.31891 20.5712ZM13.5889 24.4312C12.5742 24.4323 11.5643 24.2909 10.5889 24.0112C10.9226 23.3892 11.1395 22.7113 11.2289 22.0112C11.299 21.3243 11.6039 20.6826 12.0921 20.1944C12.5803 19.7062 13.222 19.4013 13.9089 19.3312C15.1341 19.1561 16.2697 18.589 17.1458 17.7147C18.0218 16.8405 18.5913 15.706 18.7689 14.4812C18.839 13.7943 19.1439 13.1526 19.6321 12.6644C20.1203 12.1762 20.762 11.8713 21.4489 11.8012C22.3709 11.6813 23.2497 11.338 24.0089 10.8012C24.4305 12.3991 24.4804 14.0723 24.1549 15.6925C23.8294 17.3127 23.137 18.8369 22.131 20.148C21.125 21.459 19.8321 22.5223 18.3513 23.2561C16.8706 23.9899 15.2415 24.3748 13.5889 24.3812V24.4312Z" fill="white"/>
</svg>
