<svg width="32" height="32" viewBox="0 0 32 32" fill="none" xmlns="http://www.w3.org/2000/svg">
<path d="M6.35254 7.76505C7.73015 6.06339 9.47673 4.66821 11.4718 3.67573C13.4669 2.68326 15.663 2.1171 17.9086 2.01632C20.1542 1.91553 22.396 2.28252 24.4792 3.09197C26.5624 3.90142 28.4375 5.13406 29.9752 6.70488L24.8431 11.3141C24.0014 10.4542 22.975 9.77947 21.8346 9.33638C20.6943 8.89329 19.4671 8.6924 18.2379 8.74757C17.0086 8.80274 15.8065 9.11265 14.7144 9.65593C13.6223 10.1992 12.6662 10.9629 11.9121 11.8944L6.35254 7.76505Z" fill="white"/>
<path d="M29.9999 24.6611C28.558 26.3131 26.7591 27.6459 24.7273 28.5675C22.6955 29.4891 20.4791 29.9776 18.2312 29.9992C15.9832 30.0209 13.757 29.5753 11.7063 28.6931C9.6555 27.8109 7.82893 26.513 6.35254 24.8892L11.658 20.4637C12.4662 21.3526 13.466 22.063 14.5886 22.5459C15.7112 23.0289 16.9298 23.2728 18.1603 23.261C19.3909 23.2491 20.6041 22.9817 21.7163 22.4772C22.8285 21.9727 23.8132 21.2432 24.6025 20.3389L29.9999 24.6611Z" fill="white"/>
<path d="M14.7822 16.2845L6.26061 22.9893L6.26061 9.57971L14.7822 16.2845Z" fill="#99E39E"/>
<path d="M10.5215 16.2845L1.99987 22.9893L1.99987 9.57971L10.5215 16.2845Z" fill="#99E39E"/>
</svg>
