<svg width="29" height="25" viewBox="0 0 29 25" fill="none" xmlns="http://www.w3.org/2000/svg">
<path d="M25.0281 0.0496389C25.4832 0.0266691 25.9375 0.110564 26.3545 0.294478C26.7715 0.478384 27.1398 0.757222 27.4298 1.10883C27.7197 1.46043 27.9234 1.87497 28.0247 2.31935C28.1258 2.76374 28.1217 3.22567 28.0125 3.66815L24.7172 20.573C24.4857 21.5774 23.9284 22.477 23.1322 23.1316C22.3359 23.7861 21.3454 24.1588 20.3152 24.1915H3.07396C2.6187 24.2142 2.16438 24.1303 1.74721 23.9464C1.33004 23.7624 0.961585 23.4837 0.671158 23.1323C0.38073 22.7809 0.176344 22.3665 0.0742957 21.9223C-0.0277453 21.4779 -0.0246315 21.0159 0.0833646 20.573L1.41393 13.7339C1.49194 13.4001 1.67814 13.1015 1.9435 12.8845C2.20887 12.6675 2.53855 12.5442 2.88126 12.534C6.02733 12.6459 9.04906 12.8822 11.8656 13.8956L12.4873 17.8063C12.5026 17.9007 12.5524 17.9861 12.6271 18.0458C12.7017 18.1056 12.7959 18.1355 12.8915 18.1297C13.0011 18.1277 13.1085 18.0969 13.2023 18.0401C13.2962 17.9833 13.3735 17.9026 13.4262 17.8063L15.5526 13.8956L19.8054 12.5527C19.9082 12.5197 20.0008 12.4607 20.0738 12.3811C20.1469 12.3014 20.1979 12.2042 20.2219 12.0989C20.2463 12.0057 20.2348 11.9068 20.1899 11.8217C20.1451 11.7365 20.07 11.6714 19.9794 11.6388L16.2489 10.302L15.6272 6.39143C15.612 6.29645 15.5624 6.21036 15.4879 6.14963C15.4134 6.08883 15.3191 6.05762 15.223 6.06191C15.1127 6.06441 15.005 6.09625 14.911 6.15416C14.817 6.21207 14.7401 6.29395 14.6883 6.39143L12.562 10.302C9.47849 11.1864 6.28801 11.6426 3.0802 11.6575C2.92621 11.6706 2.77136 11.6468 2.6283 11.5884C2.48524 11.53 2.3581 11.4385 2.25734 11.3214C2.15657 11.2042 2.08508 11.0648 2.04871 10.9146C2.01234 10.7644 2.01211 10.6077 2.04809 10.4574L3.37866 3.61837C3.60883 2.61445 4.16493 1.715 4.96017 1.06041C5.7554 0.405807 6.74499 0.0330068 7.77445 0L25.0281 0.0496389Z" fill="#99E39E"/>
</svg>
